HIERARCHY
ROOT joint_Root
{
	OFFSET 0.0 0.0 0.0
	CHANNELS 6 Xposition Yposition Zposition Zrotation Xrotation Yrotation 
	JOINT Hips
	{
		OFFSET 4.5925 91.4895 -427.239
		CHANNELS 6 Xposition Yposition Zposition Zrotation Xrotation Yrotation 
		JOINT Spine
		{
			OFFSET 15.7357 0.0 0.0
			CHANNELS 6 Xposition Yposition Zposition Zrotation Xrotation Yrotation 
			JOINT Chest
			{
				OFFSET 8.98455 -0.406207 0.0
				CHANNELS 6 Xposition Yposition Zposition Zrotation Xrotation Yrotation 
				JOINT Neck
				{
					OFFSET 16.3773 0.0 0.0
					CHANNELS 6 Xposition Yposition Zposition Zrotation Xrotation Yrotation 
					JOINT Head
					{
						OFFSET 6.45672 0.0 0.0
						CHANNELS 6 Xposition Yposition Zposition Zrotation Xrotation Yrotation 
						End Site
						{
							OFFSET 0.0 0.0 0.0
						}
					}
				}
				JOINT Shoulder_L
				{
					OFFSET 12.9942 -0.242716 4.98039
					CHANNELS 6 Xposition Yposition Zposition Zrotation Xrotation Yrotation 
					JOINT UpperArm_L
					{
						OFFSET 5.34809 0.0 0.0
						CHANNELS 6 Xposition Yposition Zposition Zrotation Xrotation Yrotation 
						JOINT LowerArm_L
						{
							OFFSET 24.3286 1.87007e-05 0.0
							CHANNELS 6 Xposition Yposition Zposition Zrotation Xrotation Yrotation 
							JOINT Hand_L
							{
								OFFSET 22.2916 0.0 0.0
								CHANNELS 6 Xposition Yposition Zposition Zrotation Xrotation Yrotation 
								End Site
								{
									OFFSET 0.0 0.0 0.0
								}
							}
						}
					}
				}
				JOINT Shoulder_R
				{
					OFFSET 12.9945 -0.242716 -4.98039
					CHANNELS 6 Xposition Yposition Zposition Zrotation Xrotation Yrotation 
					JOINT UpperArm_R
					{
						OFFSET -5.34813 0.0 0.0
						CHANNELS 6 Xposition Yposition Zposition Zrotation Xrotation Yrotation 
						JOINT LowerArm_R
						{
							OFFSET -24.3289 0.000322201 0.0
							CHANNELS 6 Xposition Yposition Zposition Zrotation Xrotation Yrotation 
							JOINT Hand_R
							{
								OFFSET -22.2915 -0.000108084 0.0
								CHANNELS 6 Xposition Yposition Zposition Zrotation Xrotation Yrotation 
								End Site
								{
									OFFSET 0.0 0.0 0.0
								}
							}
						}
					}
				}
			}
		}
		JOINT UpperLeg_L
		{
			OFFSET -2.19248 -6.46944 0.0
			CHANNELS 6 Xposition Yposition Zposition Zrotation Xrotation Yrotation 
			JOINT LowerLeg_L
			{
				OFFSET 39.0811 0.0 -1.23785e-05
				CHANNELS 6 Xposition Yposition Zposition Zrotation Xrotation Yrotation 
				JOINT Foot_L
				{
					OFFSET 40.9854 0.0 -1.26872e-05
					CHANNELS 6 Xposition Yposition Zposition Zrotation Xrotation Yrotation 
					JOINT Toes_L
					{
						OFFSET 11.7543 0.0 0.0
						CHANNELS 6 Xposition Yposition Zposition Zrotation Xrotation Yrotation 
						End Site
						{
							OFFSET 0.0 0.0 0.0
						}
					}
				}
			}
		}
		JOINT UpperLeg_R
		{
			OFFSET -2.19251 6.46944 0.0
			CHANNELS 6 Xposition Yposition Zposition Zrotation Xrotation Yrotation 
			JOINT LowerLeg_R
			{
				OFFSET -39.0811 -0.00228153 -0.0401928
				CHANNELS 6 Xposition Yposition Zposition Zrotation Xrotation Yrotation 
				JOINT Foot_R
				{
					OFFSET -40.9854 0.0 0.0
					CHANNELS 6 Xposition Yposition Zposition Zrotation Xrotation Yrotation 
					JOINT Toes_R
					{
						OFFSET -11.7543 0.0 0.0
						CHANNELS 6 Xposition Yposition Zposition Zrotation Xrotation Yrotation 
						End Site
						{
							OFFSET 0.0 0.0 0.0
						}
					}
				}
			}
		}
	}
}
MOTION
Frames:	4
Frame Time:	0.0333333
0.000000 0.000000 0.000000 0.000000 0.000000 -0.000000 -0.143365 91.392100 1.417910 89.881500 -0.006364 3.604160 15.735700 0.000005 -0.000001 86.300200 87.974200 -86.464700 8.984550 -0.406207 -0.000000 -3.723210 -0.244808 -0.337210 16.377300 -0.000001 -0.000001 3.471090 -3.322410 2.523670 6.456720 -0.000001 -0.000000 -2.599300 -3.657830 1.642370 12.994200 -0.242716 4.980390 -84.288200 -11.851500 -64.032900 5.348090 -0.000007 -0.000001 -33.819700 -51.546900 -86.831900 24.328600 0.000019 0.000005 23.919000 21.166800 -50.851300 22.291600 -0.000001 0.000005 28.784700 5.441730 -4.346610 12.994500 -0.242716 -4.980390 93.998600 -10.410800 -68.851800 -5.348130 -0.000001 -0.000004 -33.111900 -52.540000 -84.134600 -24.328900 0.000322 -0.000009 8.624380 7.854050 -47.986600 -22.291500 -0.000108 -0.000004 19.309500 5.592550 -10.896700 -2.192480 -6.469440 -0.000000 -176.646000 -10.542200 -3.693310 39.081100 -0.000007 -0.000012 -0.161787 0.323274 26.586500 40.985400 -0.000006 -0.000013 0.065780 5.033670 -69.311600 11.754300 -0.000000 0.000003 -0.000227 -0.002062 -16.655100 -2.192510 6.469440 -0.000001 175.131000 22.946000 179.104000 -39.081100 -0.002282 -0.040193 0.014887 -0.024011 25.740700 -40.985400 0.000008 0.000006 6.609130 12.481800 -71.752900 -11.754300 -0.000006 -0.000006 -0.000662 -0.010482 -16.999600
0.000000 0.000000 0.000000 0.000000 0.000000 -0.000000 -0.184931 91.400500 1.428400 89.846000 0.039420 3.553840 15.735700 0.000005 -0.000001 85.980300 87.934500 -86.157500 8.984550 -0.406207 -0.000000 -3.645690 -0.271768 -0.363188 16.377300 -0.000001 -0.000001 3.436180 -3.315820 2.561670 6.456720 -0.000001 -0.000000 -2.860890 -3.591190 1.677370 12.994200 -0.242716 4.980390 -84.472900 -11.491200 -64.092900 5.348090 -0.000007 -0.000001 -33.305800 -51.072200 -85.284400 24.328600 0.000019 0.000005 23.571000 18.660700 -53.746000 22.291600 -0.000001 0.000005 28.191400 5.438030 -4.216010 12.994500 -0.242716 -4.980390 93.829500 -9.943350 -68.811100 -5.348130 -0.000001 -0.000004 -32.313300 -52.288500 -82.807900 -24.328900 0.000322 -0.000009 8.333500 7.052130 -50.037500 -22.291500 -0.000108 -0.000004 17.707900 5.562960 -9.322500 -2.192480 -6.469440 -0.000000 -176.595000 -10.479400 -3.718550 39.081100 -0.000007 -0.000012 -0.161484 0.323238 26.546100 40.985400 -0.000006 -0.000013 0.038223 5.046550 -69.295800 11.754300 -0.000000 0.000003 -0.000204 -0.001883 -16.648600 -2.192510 6.469440 -0.000001 175.203000 23.030500 179.092000 -39.081100 -0.002282 -0.040193 0.013977 -0.022186 25.677200 -40.985400 0.000008 0.000006 6.573280 12.532300 -71.695500 -11.754300 -0.000006 -0.000006 -0.000543 -0.008688 -16.926700
0.000000 0.000000 0.000000 0.000000 0.000000 -0.000000 -0.220518 91.401000 1.433150 89.790500 -0.011311 3.528650 15.735700 0.000005 -0.000001 86.474400 87.874800 -86.661300 8.984550 -0.406207 -0.000000 -3.524040 -0.242835 -0.381450 16.377300 -0.000001 -0.000001 3.349210 -3.286400 2.633610 6.456720 -0.000001 -0.000000 -3.105420 -3.489010 1.826140 12.994200 -0.242716 4.980390 -84.732500 -10.990100 -64.191000 5.348090 -0.000007 -0.000001 -32.572700 -49.953400 -82.906500 24.328600 0.000019 0.000005 22.489800 15.056800 -57.896500 22.291600 -0.000001 0.000005 27.635400 5.433650 -4.064700 12.994500 -0.242716 -4.980390 93.579300 -9.353990 -68.950500 -5.348130 -0.000001 -0.000004 -30.965000 -51.616300 -80.148800 -24.328900 0.000322 -0.000009 7.543900 5.626900 -53.492300 -22.291500 -0.000108 -0.000004 16.263700 5.529560 -7.772710 -2.192480 -6.469440 -0.000000 -176.521000 -10.483100 -3.755390 39.081100 -0.000007 -0.000012 -0.161402 0.322670 26.574800 40.985400 -0.000006 -0.000013 0.002552 5.007010 -69.306900 11.754300 -0.000000 0.000003 -0.000221 -0.002014 -16.653300 -2.192510 6.469440 -0.000001 175.290000 23.047200 179.083000 -39.081100 -0.002282 -0.040193 0.013360 -0.020942 25.633300 -40.985400 0.000008 0.000006 6.561880 12.603700 -71.673500 -11.754300 -0.000006 -0.000006 -0.000430 -0.006950 -16.856100
0.000000 0.000000 0.000000 0.000000 0.000000 -0.000000 -0.239022 91.397900 1.419990 89.793100 -0.136994 3.560940 15.735700 0.000005 -0.000001 87.330100 87.789500 -87.552700 8.984550 -0.406207 -0.000000 -3.350160 -0.184247 -0.450583 16.377300 -0.000001 -0.000001 3.232060 -3.219380 2.766050 6.456720 -0.000001 -0.000000 -3.412680 -3.234160 1.994920 12.994200 -0.242716 4.980390 -85.150500 -10.203900 -64.408900 5.348090 -0.000007 -0.000001 -31.527300 -48.148500 -79.667400 24.328600 0.000019 0.000005 20.724900 10.909900 -63.430300 22.291600 -0.000001 0.000005 26.480800 5.428530 -3.887170 12.994500 -0.242716 -4.980390 93.220200 -8.543590 -69.257800 -5.348130 -0.000001 -0.000004 -29.211100 -50.338500 -76.312800 -24.328900 0.000322 -0.000009 7.198880 4.433600 -58.539300 -22.291500 -0.000108 -0.000004 15.339900 5.498960 -6.489600 -2.192480 -6.469440 -0.000000 -176.496000 -10.596000 -3.713370 39.081100 -0.000007 -0.000012 -0.162381 0.324503 26.583500 40.985400 -0.000006 -0.000013 -0.020572 4.977090 -69.313700 11.754300 -0.000000 0.000003 -0.000223 -0.002027 -16.653800 -2.192510 6.469440 -0.000001 175.284000 23.011300 179.105000 -39.081100 -0.002282 -0.040193 0.013239 -0.020698 25.626000 -40.985400 0.000008 0.000006 6.609730 12.689300 -71.721300 -11.754300 -0.000006 -0.000006 -0.000433 -0.006994 -16.857900
